<svg class="svg-icon" style="width: 1em; height: 1em;vertical-align: middle;fill: currentColor;overflow: hidden;" viewBox="0 0 1024 1024" version="1.1" xmlns="http://www.w3.org/2000/svg"><path d="M216.631 169.109h591.305c57.629 0 104.348 46.72 104.348 104.349v469.564c0 57.629-46.718 104.346-104.348 104.346H216.631c-57.629 0-104.348-46.716-104.348-104.346V273.459c0-57.63 46.719-104.35 104.348-104.35z" fill="#FFA820" /><path d="M112.283 692.497v50.526c0 57.629 46.718 104.346 104.348 104.346h33.676c-57.5-39.711-105.014-92.844-138.024-154.872zM196.874 170.986c-48.181 9.235-84.59 51.6-84.59 102.473v8.932c22.131-41.587 50.779-79.179 84.59-111.405zM912.283 743.023V628.417c-30.517 89.62-89.323 166.151-165.778 218.952h61.43c57.63 0 104.348-46.717 104.348-104.346zM912.283 346.471v-73.012c0-57.629-46.718-104.349-104.348-104.349h-9.989c51.4 48.382 91.083 109.07 114.337 177.361z" fill="#FEAC33" /><path d="M912.283 628.417V346.471c-23.254-68.291-62.937-128.979-114.336-177.362h-86.584c88.634 69.024 145.649 176.745 145.649 297.787 0 208.331-168.886 377.217-377.217 377.217-178.966 0-328.821-124.631-367.512-291.835v140.218c33.009 62.028 80.524 115.162 138.024 154.872h496.199c76.454-52.8 135.26-129.331 165.777-218.951zM248.227 169.109h-31.596c-6.756 0-13.359 0.65-19.757 1.876-33.811 32.226-62.459 69.818-84.59 111.406v99.123c19.819-85.651 68.812-160.127 135.943-212.405z" fill="#FEB133" /><path d="M479.795 844.113c208.331 0 377.217-168.886 377.217-377.217 0-121.042-57.015-228.763-145.649-297.787h-95.736c97.161 54.243 162.878 158.058 162.878 277.239 0 175.252-142.07 317.321-317.321 317.321S143.863 621.6 143.863 446.349c0-119.181 65.716-222.996 162.878-277.239h-58.513c-67.131 52.278-116.124 126.753-135.944 212.405v170.764c38.69 167.203 188.546 291.834 367.511 291.834z" fill="#FEB633" /><path d="M143.863 446.349c0 175.252 142.07 317.321 317.321 317.321S778.506 621.6 778.506 446.349c0-119.181-65.716-222.996-162.878-277.239H462.117c133.042 9.987 237.882 121.095 237.882 256.692 0 142.172-115.253 257.426-257.426 257.426S185.148 567.973 185.148 425.801c0-135.597 104.84-246.704 237.882-256.692H306.741c-97.162 54.243-162.878 158.059-162.878 277.24z" fill="#FFBC34" /><path d="M185.148 425.801c0 142.172 115.253 257.426 257.426 257.426S700 567.974 700 425.801c0-135.597-104.84-246.704-237.882-256.692H423.03c-133.042 9.988-237.882 121.095-237.882 256.692z m238.814-218.078c109.093 0 197.53 88.437 197.53 197.53s-88.437 197.53-197.53 197.53-197.53-88.437-197.53-197.53 88.438-197.53 197.53-197.53z" fill="#FFC134" /><path d="M423.962 602.783c109.093 0 197.53-88.437 197.53-197.53s-88.437-197.53-197.53-197.53-197.53 88.437-197.53 197.53 88.438 197.53 197.53 197.53z m-18.611-355.712c76.013 0 137.634 61.621 137.634 137.634S481.365 522.34 405.351 522.34s-137.634-61.621-137.634-137.634 61.621-137.635 137.634-137.635z" fill="#FFC634" /><path d="M405.351 384.706m-137.634 0a137.634 137.634 0 1 0 275.268 0 137.634 137.634 0 1 0-275.268 0Z" fill="#FFCB34" /><path d="M807.936 187.109c47.612 0 86.348 38.736 86.348 86.349v469.564c0 47.611-38.735 86.346-86.348 86.346H216.631c-47.612 0-86.348-38.735-86.348-86.346V273.459c0-47.613 38.735-86.349 86.348-86.349h591.305m0-18.001H216.631c-57.629 0-104.348 46.72-104.348 104.349v469.564c0 57.629 46.718 104.346 104.348 104.346h591.305c57.629 0 104.348-46.716 104.348-104.346V273.459c-0.001-57.63-46.719-104.35-104.348-104.35z" fill="#FFA820" /><path d="M459.494 435.197c-28.819 0-52.177 23.358-52.177 52.176V609.11c0 28.814 23.358 52.176 52.177 52.176h434.78V435.197h-434.78z m60.868 173.913c-33.619 0-60.868-27.252-60.868-60.87 0-33.617 27.249-60.868 60.868-60.868 33.617 0 60.869 27.25 60.869 60.868s-27.252 60.87-60.869 60.87z" fill="#FFE3B4" /><path d="M171.692 312.635c-9.941 0-18-8.059-18-18V283.63c0-40.967 33.329-74.296 74.296-74.296H244.9c9.941 0 18 8.059 18 18s-8.059 18-18 18h-16.912c-21.117 0-38.296 17.18-38.296 38.296v11.005c0 9.941-8.059 18-18 18zM171.692 382.24c-9.941 0-18-8.059-18-18v-10.546c0-9.941 8.059-18 18-18s18 8.059 18 18v10.546c0 9.941-8.059 18-18 18z" fill="#FFFFFF" /></svg>